<svg width="264" height="22" viewBox="0 0 264 22" fill="none" xmlns="http://www.w3.org/2000/svg">
<g clip-path="url(#clip0)">
<path d="M15.1099 8.18062L12.0689 11.0584L15.1099 13.9362L18.1509 11.0584L15.1099 8.18062Z" fill="white"/>
<path d="M23.9317 8.18354L20.8907 11.0613L23.9317 13.9391L26.9727 11.0613L23.9317 8.18354Z" fill="white"/>
<path d="M32.7599 8.18043L29.7189 11.0582L32.7599 13.936L35.801 11.0582L32.7599 8.18043Z" fill="white"/>
<path d="M28.4622 0.338633L39.5173 11.3265L43.5815 15.3782L47.8629 11.5261L43.7923 7.48047L36.6033 0.326538H28.4749L28.4622 0.338633Z" fill="white"/>
<path d="M27.8998 21.7883H36.4563L43.5814 15.3782L47.8629 11.5261L43.7923 7.48047L39.5172 11.3265L27.8998 21.7883Z" fill="white"/>
<path d="M19.4008 0.338633L8.34565 11.3265L4.28146 15.3782L0 11.5261L4.07058 7.48047L11.2596 0.326538H19.388L19.4008 0.338633Z" fill="white"/>
<path d="M19.9631 21.7883H19.9567H11.4066L4.28146 15.3782L0 11.5261L4.07058 7.48047L8.34566 11.3265L19.9631 21.7883Z" fill="white"/>
<path d="M60.5986 3.67671H55.7932V0.338623H69.4427V3.67671H64.6372V21.6371H60.5986V3.67671Z" fill="white"/>
<path d="M89.1566 12.1731H81.9356V18.3535H90.0513L89.5528 21.6371H77.9545V0.338623H89.4953V3.67671H81.9356V8.85923H89.1566V12.1731Z" fill="white"/>
<path d="M112.13 15.4387C112.027 16.5151 111.599 22.006 105.35 22.006C98.9593 22.006 98.218 16.6844 98.218 10.9577C98.218 4.06377 100.359 0 105.592 0C111.561 0 112.021 4.83781 112.117 6.54919H108.129C108.065 5.82352 108.014 3.2353 105.528 3.2353C103.043 3.2353 102.384 6.16821 102.384 11.0423C102.384 15.0577 102.806 18.8252 105.42 18.8252C107.823 18.8252 108.014 16.2551 108.11 15.4387H112.13Z" fill="white"/>
<path d="M120.954 0.338623H124.993V8.75642H130.418V0.338623H134.451V21.6371H130.418V12.0522H124.993V21.619H120.954V0.338623Z" fill="white"/>
<path d="M158.535 13.7152C158.535 10.0868 158.606 5.92631 158.67 3.51344H158.58C157.801 7.55303 156.555 14.7432 155.078 21.6553H151.442C150.35 15.2331 149.059 7.5893 148.337 3.47111H148.202C148.33 5.95654 148.433 10.4194 148.433 14.0962V21.6553H144.745V0.338623H150.759C151.934 6.22867 152.97 12.1731 153.423 15.2814H153.455C153.909 12.3908 155.321 5.97469 156.497 0.338623H162.376V21.6371H158.51L158.535 13.7152Z" fill="white"/>
<path d="M176.639 0.338623V21.6371H172.6V0.338623H176.639Z" fill="white"/>
<path d="M186.934 21.6371V0.338623H191.509C196.168 12.1066 197.062 14.3562 197.331 15.3963H197.363C197.171 12.8383 197.164 9.70586 197.164 6.21658V0.338623H200.762V21.6371H196.372C191.567 9.08903 190.717 6.82734 190.423 5.84768H190.378C190.544 8.4722 190.551 11.6107 190.551 15.4266V21.6371H186.934Z" fill="white"/>
<path d="M214.341 16.2853L213.223 21.6432H209.191L214.399 0.344666H219.633L224.885 21.6371H220.668L219.55 16.2853H214.341ZM218.815 12.9714C217.971 8.8955 217.3 5.92024 216.949 3.90045H216.853C216.578 5.85977 215.862 9.05878 215.038 12.9714H218.815Z" fill="white"/>
<path d="M234.56 3.67671H229.755V0.338623H243.417V3.67671H238.612V21.6371H234.573L234.56 3.67671Z" fill="white"/>
<path d="M263.118 12.1731H255.897V18.3535H264.006L263.508 21.6371H251.916V0.338623H263.457V3.67671H255.897V8.85923H263.118V12.1731Z" fill="white"/>
</g>
<defs>
<clipPath id="clip0">
<rect width="264" height="22" fill="white"/>
</clipPath>
</defs>
</svg>
